<svg xmlns="http://www.w3.org/2000/svg" viewBox="0 0 120 120" role="img" aria-label="HQ-OS — Hybrid Classical + Quantum Operating System">
  <title>HQ-OS — Hybrid Classical + Quantum Operating System</title>
  <defs><radialGradient id="qg" cx="0.72" cy="0.5" r="0.5">
    <stop offset="0" stop-color="#00E5FF" stop-opacity="0.45"/><stop offset="1" stop-color="#00E5FF" stop-opacity="0"/></radialGradient></defs>
  <circle cx="86" cy="60" r="34" fill="url(#qg)"/>
  <!-- CPU/GPU chip (left) -->
  <rect x="20" y="44" width="32" height="32" rx="3" fill="#1A3A5C" stroke="#C9A84C" stroke-width="2.4"/>
  <line x1="28.00" y1="39.00" x2="28.00" y2="44.00" stroke="#00C2D4" stroke-width="1.6"/>
  <line x1="36.00" y1="39.00" x2="36.00" y2="44.00" stroke="#00C2D4" stroke-width="1.6"/>
  <line x1="44.00" y1="39.00" x2="44.00" y2="44.00" stroke="#00C2D4" stroke-width="1.6"/><line x1="28.00" y1="76.00" x2="28.00" y2="81.00" stroke="#00C2D4" stroke-width="1.6"/>
  <line x1="36.00" y1="76.00" x2="36.00" y2="81.00" stroke="#00C2D4" stroke-width="1.6"/>
  <line x1="44.00" y1="76.00" x2="44.00" y2="81.00" stroke="#00C2D4" stroke-width="1.6"/><line x1="15.00" y1="52.00" x2="20.00" y2="52.00" stroke="#00C2D4" stroke-width="1.6"/>
  <line x1="15.00" y1="60.00" x2="20.00" y2="60.00" stroke="#00C2D4" stroke-width="1.6"/>
  <line x1="15.00" y1="68.00" x2="20.00" y2="68.00" stroke="#00C2D4" stroke-width="1.6"/>
  <text x="36" y="64" text-anchor="middle" fill="#C9A84C" font-family="'IBM Plex Mono',monospace" font-size="9" font-weight="600">CPU</text>
  <!-- QPU node (right) -->
  <circle cx="92" cy="60" r="17" fill="none" stroke="#00C2D4" stroke-width="2.4"/>
  <ellipse cx="92" cy="60" rx="17" ry="6.5" fill="none" stroke="#00C2D4" stroke-width="1.3" transform="rotate(30 92 60)"/>
  <ellipse cx="92" cy="60" rx="17" ry="6.5" fill="none" stroke="#00C2D4" stroke-width="1.3" transform="rotate(-30 92 60)"/>
  <circle cx="92" cy="60" r="4" fill="#00E5FF"/>
  <!-- bidirectional link -->
  <path d="M 54 56 L 73 56" stroke="#C9A84C" stroke-width="2" fill="none"/>
  <path d="M 73 56 l -5 -3 m 5 3 l -5 3" stroke="#C9A84C" stroke-width="2" fill="none"/>
  <path d="M 73 64 L 54 64" stroke="#00C2D4" stroke-width="2" fill="none"/>
  <path d="M 54 64 l 5 -3 m -5 3 l 5 3" stroke="#00C2D4" stroke-width="2" fill="none"/>
</svg>